<?xml version="1.0" standalone="no"?><!DOCTYPE svg PUBLIC "-//W3C//DTD SVG 1.1//EN" "http://www.w3.org/Graphics/SVG/1.1/DTD/svg11.dtd"><svg t="1601358689376" class="icon" viewBox="0 0 1028 1024" version="1.1" xmlns="http://www.w3.org/2000/svg" p-id="4000" xmlns:xlink="http://www.w3.org/1999/xlink" width="200.78125" height="200"><defs><style type="text/css"></style></defs><path d="M365.847 501.681H150.46c-48.772 0-88.46-40.686-88.46-90.638v-220.64c0-49.953 39.677-90.598 88.45-90.598h215.397c48.773 0 88.45 40.645 88.45 90.597v220.641c0 49.952-39.677 90.638-88.45 90.638zM150.46 153.63c-19.793 0-35.896 16.506-35.896 36.773v220.641c0 20.268 16.133 36.764 35.896 36.764h215.387c19.794 0 35.897-16.496 35.897-36.764v-220.64c0-20.268-16.133-36.774-35.897-36.774zM365.847 962H150.46c-48.772 0-88.45-40.645-88.45-90.608v-220.63c-0.01-49.963 39.678-90.598 88.45-90.598h215.387c48.773 0 88.45 40.645 88.45 90.608v220.62c0 49.963-39.677 90.608-88.45 90.608zM150.46 613.988c-19.793 0-35.896 16.496-35.896 36.774v220.63c0 20.278 16.133 36.774 35.896 36.774h215.387c19.794 0 35.897-16.496 35.897-36.774v-220.63c0-20.278-16.133-36.774-35.897-36.774z m766.495-183.363l-192.407 99.158c-43.56 22.455-96.8 4.417-118.76-40.212l-96.8-197.086c-21.92-44.628-4.305-99.209 39.255-121.664L740.6 71.652c43.57-22.445 96.85-4.406 118.77 40.222l96.8 197.087c21.97 44.628 4.355 99.209-39.215 121.664zM571.858 218.877c-17.686 9.075-24.835 31.258-15.932 49.408l96.799 197.097a35.543 35.543 0 0 0 48.208 16.314l192.408-99.158c17.675-9.075 24.824-31.258 15.931-49.408l-96.799-197.096a35.533 35.533 0 0 0-48.198-16.315zM840.293 962H624.905c-48.772 0-88.45-40.645-88.45-90.608v-220.63c0-49.963 39.678-90.608 88.45-90.608h215.388c48.772 0 88.45 40.645 88.45 90.608v220.63c0 49.963-39.678 90.608-88.45 90.608zM624.905 613.988c-19.793 0-35.896 16.496-35.896 36.774v220.63c0 20.278 16.133 36.774 35.896 36.774h215.388c19.793 0 35.896-16.496 35.896-36.774v-220.63c0-20.278-16.133-36.774-35.896-36.774z" p-id="4001"></path></svg>