<?xml version="1.0" standalone="no"?><!DOCTYPE svg PUBLIC "-//W3C//DTD SVG 1.1//EN" "http://www.w3.org/Graphics/SVG/1.1/DTD/svg11.dtd"><svg t="1601358986219" class="icon" viewBox="0 0 1024 1024" version="1.1" xmlns="http://www.w3.org/2000/svg" p-id="5475" xmlns:xlink="http://www.w3.org/1999/xlink" width="200" height="200"><defs><style type="text/css"></style></defs><path d="M956.7 465.5C949.9 402 930 342.4 898 287.9c57.1-98.6 68.3-166.8 33.1-202.6-44.8-45.6-139.1-9.4-220 36.4C649.5 90.4 581 73.8 511.3 73.6c-245.7-1.2-446.1 198-447.1 443.6-0.3 69.6 15.7 138.1 46.4 199.9C61 807.7 52.6 870.7 86 904.7c16.2 16.5 39.9 22.6 69.2 20.1 32.6-2.8 72.2-16.6 116-38.3 85.7 55.8 188.5 80.5 290.5 69.5 244.1-26.3 421.4-246.3 395-490.5zM122.1 869.7c-10.3-10.5-12.2-54.1 45.8-151.3l0.3-0.2c0-0.1-0.1-0.1-0.1-0.2v-0.1l-0.1-0.1c-35.4-60.6-53.9-129.9-53.7-200.5 0.9-217.9 178.9-394.4 396.8-393.7 67.9 0.4 134.3 18.2 192.9 51.3l4.2 6.7c121.9-74.9 175.5-72.9 186.8-61.4 10.7 10.8 12.2 56.3-49.8 157.9-56 91.9-145.6 199.5-252.2 302.8-235.8 228.8-436.4 323.9-470.9 288.8z m434.1 36.5c-81.3 8.8-163.2-8-234.2-47.4 96.3-57 206.2-144.8 306.3-241.9 97.3-94.3 180.9-192.4 239.2-280.1 20.9 41.8 34.2 86.7 39.3 134 23.4 216.7-133.9 412-350.6 435.4z" fill="#24BC77" p-id="5476"></path><path d="M314.3 462.9c-55.1 0-99.9 44.8-99.9 99.9s44.8 99.9 99.9 99.9 99.9-44.8 99.9-99.9-44.8-99.9-99.9-99.9z m0 162.2c-34.3 0-62.3-27.9-62.3-62.3s28-62.3 62.3-62.3 62.3 28 62.3 62.3-28 62.3-62.3 62.3zM489.1 222.4c-44.3 0-80.4 36.1-80.4 80.4s36.1 80.4 80.4 80.4 80.4-36.1 80.4-80.4-36-80.4-80.4-80.4z m0 123.1c-23.6 0-42.7-19.2-42.7-42.7s19.2-42.7 42.7-42.7c23.6 0 42.7 19.2 42.7 42.7s-19.1 42.7-42.7 42.7zM627.2 720.2c-31 0-56.2 25.2-56.2 56.2 0 31 25.2 56.2 56.2 56.2s56.2-25.2 56.2-56.2c0-31-25.2-56.2-56.2-56.2z m0 74.7c-10.2 0-18.5-8.3-18.5-18.5s8.3-18.5 18.5-18.5 18.5 8.3 18.5 18.5-8.3 18.5-18.5 18.5z" fill="#24BC77" p-id="5477"></path></svg>